# xmcd CD database file
#
# Track frame offsets:
#	150
#	26150
#	47985
#	62840
#	88734
#	101972
#	123820
#	143492
#
# Disc length: 2082 seconds
#
# Revision: 0
# Processed by: cddbd v1.5.2PL0 Copyright (c) Steve Scherf et al.
# Submitted via: CDex 1.70beta3
#
DISCID=6e082008
DTITLE=TYPE-MOON10周年記念ドラマCD - 恐怖・人類未踏の地底大洞窟
DYEAR=2011
DGENRE=ドラマCD
TTITLE0=恐怖・人類未踏の地底大洞窟
TTITLE1=恐怖・人類未踏の地底大洞窟
TTITLE2=恐怖・人類未踏の地底大洞窟
TTITLE3=恐怖・人類未踏の地底大洞窟
TTITLE4=恐怖・人類未踏の地底大洞窟
TTITLE5=恐怖・人類未踏の地底大洞窟
TTITLE6=恐怖・人類未踏の地底大洞窟
TTITLE7=恐怖・人類未踏の地底大洞窟
EXTD=YEAR: 2011
EXTT0=
EXTT1=
EXTT2=
EXTT3=
EXTT4=
EXTT5=
EXTT6=
EXTT7=
PLAYORDER=
